<?xml version="1.0" standalone="no"?>
<!DOCTYPE svg PUBLIC "-//W3C//DTD SVG 20010904//EN"
 "http://www.w3.org/TR/2001/REC-SVG-20010904/DTD/svg10.dtd">
<svg version="1.0" xmlns="http://www.w3.org/2000/svg"
 width="1280.000000pt" height="1269.000000pt" viewBox="0 0 1280.000000 1269.000000"
 preserveAspectRatio="xMidYMid meet">
<metadata>
Created by potrace 1.15, written by Peter Selinger 2001-2017
</metadata>
<g transform="translate(0.000000,1269.000000) scale(0.100000,-0.100000)"
fill="#000000" stroke="none">
<path d="M6348 11646 c-75 -151 -124 -236 -135 -239 -10 -3 -124 -20 -253 -38
-129 -17 -238 -35 -243 -39 -4 -3 77 -89 179 -190 l186 -184 -42 -241 c-23
-132 -44 -248 -46 -257 -3 -10 -2 -18 3 -18 4 0 112 54 238 120 l230 119 110
-58 c61 -32 167 -88 236 -125 l126 -66 -44 262 -45 263 193 188 c107 103 190
187 186 187 -24 0 -495 72 -509 78 -10 4 -67 108 -132 240 -63 127 -116 232
-118 232 -2 0 -56 -105 -120 -234z"/>
<path d="M8424 11269 c-10 -12 -72 -71 -136 -131 l-118 -110 -172 36 c-95 20
-178 36 -185 36 -7 0 24 -73 69 -162 44 -90 81 -167 81 -173 0 -5 -41 -82 -91
-170 -50 -87 -90 -160 -89 -161 1 -1 76 9 167 22 91 13 175 23 187 24 16 0 57
-38 144 -135 68 -74 126 -132 129 -127 4 4 19 79 34 167 15 88 30 167 32 176
3 9 72 46 167 89 89 40 166 76 170 80 4 4 -61 44 -145 88 -84 45 -159 86 -165
90 -8 5 -21 79 -34 192 -11 102 -22 186 -23 188 -2 1 -11 -7 -22 -19z"/>
<path d="M4376 11237 c-3 -23 -8 -105 -12 -182 -4 -77 -11 -145 -16 -152 -5
-6 -76 -51 -158 -100 -82 -48 -150 -91 -150 -95 0 -3 77 -37 172 -75 l172 -68
36 -155 c20 -85 39 -168 43 -183 8 -28 12 -24 128 117 66 80 123 146 127 146
4 0 79 -7 167 -15 88 -8 170 -15 182 -15 20 0 11 18 -77 155 -55 85 -100 159
-100 164 0 6 32 85 71 177 38 91 69 167 67 169 -2 1 -84 -19 -183 -45 l-179
-48 -142 124 -142 123 -6 -42z"/>
<path d="M3420 9706 c-455 -201 -731 -418 -863 -681 -56 -112 -79 -210 -84
-361 -3 -78 -3 -154 1 -168 8 -31 19 -32 142 -11 196 35 343 106 476 233 157
150 264 354 343 654 37 143 75 318 75 349 0 25 -2 24 -90 -15z"/>
<path d="M9370 9724 c0 -8 16 -91 36 -182 127 -593 341 -899 714 -1021 81 -27
252 -56 275 -47 15 5 17 23 12 169 -5 184 -16 237 -78 366 -55 117 -111 191
-221 296 -148 142 -328 257 -592 376 -71 33 -133 59 -137 59 -5 0 -9 -7 -9
-16z"/>
<path d="M1946 9311 c-132 -258 -209 -480 -235 -674 -29 -215 11 -420 117
-599 48 -82 155 -208 176 -208 14 0 86 73 148 150 60 75 117 179 150 280 31
92 32 101 32 265 1 152 -2 181 -26 277 -15 59 -44 152 -64 205 -39 108 -203
453 -215 453 -3 0 -41 -67 -83 -149z"/>
<path d="M10767 9303 c-175 -364 -235 -585 -224 -822 10 -216 79 -378 240
-563 27 -32 61 -65 74 -74 25 -16 26 -15 70 28 65 63 156 204 192 296 96 251
77 533 -61 881 -49 121 -190 403 -204 408 -6 2 -45 -67 -87 -154z"/>
<path d="M6481 8953 c-23 -50 -213 -338 -299 -453 -270 -359 -562 -653 -864
-869 l-107 -76 0 -168 -1 -169 48 28 c40 23 93 58 186 124 216 153 469 372
621 539 79 88 116 121 130 119 20 -3 20 -11 20 -1878 0 -1778 -1 -1879 -18
-1953 -38 -160 -124 -280 -240 -332 -47 -21 -77 -30 -169 -50 l-28 -5 0 -130
0 -130 790 0 791 0 -3 132 -3 131 -64 13 c-195 40 -306 152 -363 367 l-23 82
-2 2353 -3 2352 -194 0 -193 0 -12 -27z"/>
<path d="M3175 8516 c-687 -230 -994 -533 -1022 -1010 l-6 -109 119 6 c264 13
456 97 625 274 157 165 255 348 370 696 32 97 59 179 59 182 0 8 -12 5 -145
-39z"/>
<path d="M9587 8477 c172 -560 370 -855 666 -992 104 -48 220 -74 361 -82
l119 -6 -6 114 c-20 402 -272 703 -757 907 -92 39 -326 122 -382 135 l-26 7
25 -83z"/>
<path d="M1341 8144 c-39 -127 -90 -348 -106 -455 -21 -149 -20 -370 4 -484
37 -180 106 -316 224 -442 60 -63 183 -163 202 -163 15 0 91 118 130 203 150
325 99 657 -162 1052 -67 101 -212 294 -258 344 -11 11 -17 2 -34 -55z"/>
<path d="M11484 8172 c-140 -168 -280 -373 -354 -521 -182 -362 -171 -669 37
-992 21 -32 42 -59 46 -59 17 0 104 66 171 129 165 159 249 338 276 589 14
134 2 298 -35 492 -23 115 -88 359 -103 387 -5 8 -18 -1 -38 -25z"/>
<path d="M2539 7321 c-539 -361 -757 -701 -718 -1118 8 -86 31 -198 43 -210 7
-8 169 44 242 77 195 88 354 256 445 470 42 99 85 275 105 423 17 131 33 447
23 447 -4 0 -67 -40 -140 -89z"/>
<path d="M10203 7248 c24 -604 173 -946 497 -1139 64 -38 217 -98 287 -113 29
-7 32 -5 42 26 26 81 43 224 37 313 -21 307 -171 556 -497 822 -77 63 -351
253 -365 253 -4 0 -4 -73 -1 -162z"/>
<path d="M870 6808 c0 -134 45 -447 86 -598 111 -407 339 -656 693 -754 35
-10 67 -14 71 -9 5 4 17 46 27 93 26 122 23 327 -6 435 -68 252 -255 474 -586
695 -108 72 -269 170 -279 170 -3 0 -6 -15 -6 -32z"/>
<path d="M11882 6770 c-521 -319 -744 -599 -768 -963 -8 -117 29 -367 54 -367
19 0 145 41 208 67 187 79 351 239 454 443 46 91 105 278 129 406 38 200 63
484 44 484 -5 0 -59 -32 -121 -70z"/>
<path d="M2503 6208 c-148 -162 -208 -235 -286 -353 -234 -355 -268 -691 -106
-1021 25 -50 37 -64 50 -61 45 12 190 109 261 176 283 265 351 608 242 1213
-13 75 -28 146 -32 157 -7 19 -22 5 -129 -111z"/>
<path d="M10250 6340 c0 -3 -11 -63 -24 -133 -46 -236 -59 -376 -53 -561 4
-126 11 -193 26 -253 65 -257 204 -438 447 -581 38 -23 76 -42 83 -42 17 0 84
147 113 245 20 69 23 102 22 235 -1 139 -3 165 -28 245 -54 180 -161 366 -321
560 -85 102 -264 294 -265 285z"/>
<path d="M781 5394 c133 -257 249 -427 388 -564 99 -99 181 -157 295 -210 137
-64 189 -75 376 -75 93 0 172 4 181 10 14 9 14 18 2 90 -17 107 -66 245 -113
326 -139 236 -356 380 -715 474 -130 35 -401 85 -455 85 l-29 0 70 -136z"/>
<path d="M11965 5505 c-483 -85 -758 -215 -929 -438 -96 -126 -174 -324 -179
-457 l-2 -54 45 -9 c79 -15 306 -2 390 23 318 92 569 350 821 843 l60 117 -38
-1 c-21 0 -96 -11 -168 -24z"/>
<path d="M2778 5113 c-213 -281 -330 -501 -389 -728 -19 -74 -23 -114 -23
-230 1 -122 5 -152 28 -228 14 -48 40 -116 57 -150 37 -73 101 -177 111 -177
18 0 172 126 231 190 110 119 177 249 214 414 24 108 21 331 -6 481 -29 161
-120 496 -141 518 -4 5 -41 -35 -82 -90z"/>
<path d="M9991 5117 c-36 -113 -83 -291 -108 -407 -13 -65 -18 -132 -18 -285
0 -178 2 -208 23 -278 44 -154 136 -303 253 -411 53 -50 170 -136 183 -136 2
0 26 34 51 75 255 408 173 853 -260 1425 -41 54 -79 101 -84 105 -6 3 -23 -37
-40 -88z"/>
<path d="M3277 4378 c-258 -528 -301 -893 -142 -1215 44 -89 129 -207 192
-266 l30 -28 66 70 c113 121 189 251 233 401 15 52 19 97 19 225 0 143 -3 172
-29 270 -15 61 -48 162 -73 225 -46 118 -211 450 -224 450 -4 0 -36 -60 -72
-132z"/>
<path d="M9523 4498 c-20 -26 -122 -226 -168 -328 -234 -521 -201 -906 106
-1234 l64 -69 67 72 c302 323 326 749 72 1313 -52 116 -122 258 -128 258 -2 0
-8 -6 -13 -12z"/>
<path d="M945 4444 c121 -191 300 -413 416 -517 228 -204 474 -300 724 -283
81 6 238 36 251 48 2 3 -7 43 -22 89 -112 356 -333 558 -715 655 -149 37 -286
54 -498 61 l-194 6 38 -59z"/>
<path d="M11635 4493 c-434 -40 -712 -156 -891 -370 -65 -79 -154 -254 -183
-360 l-20 -73 37 -9 c250 -67 454 -49 670 56 210 103 419 309 631 623 43 63
81 121 85 128 6 9 -25 12 -141 10 -81 -1 -166 -3 -188 -5z"/>
<path d="M3875 3728 c-86 -656 14 -1044 336 -1294 54 -41 194 -124 212 -124
13 0 84 159 109 245 20 69 23 102 22 240 0 148 -2 167 -28 245 -58 177 -155
333 -326 526 -84 94 -289 294 -302 294 -3 0 -13 -60 -23 -132z"/>
<path d="M8824 3712 c-274 -271 -410 -471 -476 -698 -20 -67 -23 -101 -22
-229 0 -134 3 -160 28 -239 27 -90 90 -236 101 -236 15 0 147 73 191 105 329
247 445 636 369 1237 -23 180 -27 208 -35 208 -4 0 -74 -66 -156 -148z"/>
<path d="M1930 3523 c-179 -18 -420 -54 -420 -64 0 -3 66 -71 148 -150 273
-267 487 -405 730 -471 61 -17 106 -21 217 -21 157 0 233 15 372 76 93 40 94
43 31 154 -159 279 -395 432 -728 473 -79 9 -270 11 -350 3z"/>
<path d="M10585 3519 c-286 -38 -513 -174 -662 -394 -34 -51 -103 -176 -103
-188 0 -11 170 -80 238 -98 318 -81 626 13 977 296 89 72 335 310 335 324 0 7
-68 20 -265 47 -127 18 -428 26 -520 13z"/>
<path d="M4670 3032 c0 -5 24 -65 54 -133 231 -537 480 -806 831 -900 62 -17
111 -22 217 -23 75 0 139 2 143 6 11 10 -13 187 -35 261 -45 156 -103 259
-208 369 -163 170 -387 282 -747 373 -197 50 -255 61 -255 47z"/>
<path d="M8155 3033 c-143 -31 -322 -79 -409 -108 -412 -138 -648 -351 -740
-667 -24 -84 -51 -266 -41 -276 12 -12 179 -14 257 -3 406 59 694 346 948 947
52 123 52 122 -15 107z"/>
<path d="M2945 2731 c-165 -31 -257 -57 -487 -138 -70 -25 -125 -49 -123 -54
3 -4 70 -51 149 -103 593 -395 1031 -440 1434 -147 l43 32 -33 46 c-121 168
-302 297 -500 354 -106 31 -345 36 -483 10z"/>
<path d="M9500 2731 c-165 -36 -288 -101 -414 -221 -43 -41 -98 -101 -122
-132 l-44 -57 63 -45 c86 -61 205 -120 297 -146 96 -27 269 -37 381 -21 198
29 463 145 728 321 82 55 152 104 155 109 7 11 -209 91 -371 137 -262 74 -494
92 -673 55z"/>
<path d="M4202 2175 c-178 -32 -385 -125 -602 -270 -160 -107 -259 -178 -260
-186 0 -7 302 -103 405 -128 174 -43 277 -54 453 -49 143 5 180 9 255 32 163
49 279 120 398 242 85 89 114 128 104 144 -10 17 -145 104 -210 137 -169 84
-358 112 -543 78z"/>
<path d="M8382 2179 c-72 -12 -190 -53 -260 -88 -69 -35 -202 -128 -202 -141
0 -14 90 -118 151 -175 102 -96 212 -158 356 -201 74 -22 113 -27 247 -32 180
-5 279 5 461 49 106 26 393 115 404 125 5 5 -2 10 -144 112 -235 169 -454 282
-635 329 -107 28 -289 38 -378 22z"/>
<path d="M6360 1969 c-121 -49 -173 -199 -107 -312 15 -26 47 -60 69 -75 36
-24 51 -27 119 -27 70 0 82 3 121 30 50 35 98 120 98 173 0 86 -52 170 -124
203 -45 20 -135 24 -176 8z"/>
<path d="M5341 1785 c-244 -55 -489 -199 -792 -467 -44 -38 -78 -72 -76 -75
17 -16 356 -87 499 -103 149 -18 398 -8 507 19 102 26 231 85 315 145 77 55
179 162 234 246 l42 65 -53 33 c-72 47 -186 99 -271 123 -94 28 -312 35 -405
14z"/>
<path d="M7190 1784 c-82 -17 -134 -36 -235 -87 -87 -43 -135 -74 -135 -87 0
-17 87 -137 144 -198 111 -119 265 -208 436 -252 109 -28 355 -38 508 -20 144
16 482 87 499 103 5 6 -49 56 -147 139 -278 233 -510 362 -728 404 -92 18
-256 17 -342 -2z"/>
</g>
</svg>
